<?xml version="1.0" encoding="utf-8"?>
<!-- Generator: Adobe Illustrator 21.0.0, SVG Export Plug-In . SVG Version: 6.00 Build 0)  -->
<svg version="1.1" id="Layer_1" xmlns="http://www.w3.org/2000/svg" xmlns:xlink="http://www.w3.org/1999/xlink" x="0px" y="0px"
	 viewBox="0 0 586.6 505.7" style="enable-background:new 0 0 586.6 505.7;" xml:space="preserve">
<style type="text/css">
	.st0{fill:url(#SVGID_1_);}
	.st1{fill:url(#SVGID_2_);}
	.st2{fill:#E81F64;}
	.st3{fill:url(#SVGID_3_);}
	.st4{fill:#38A4DD;}
</style>
<title>MTE_bug</title>
<linearGradient id="SVGID_1_" gradientUnits="userSpaceOnUse" x1="483.44" y1="323.9276" x2="483.44" y2="84.8275" gradientTransform="matrix(1 0 0 -1.27 -32.14 435.46)">
	<stop  offset="0" style="stop-color:#BA1950"/>
	<stop  offset="0.8" style="stop-color:#38A4DD"/>
</linearGradient>
<path class="st0" d="M510.2,439l-117.8-0.5V68h117.8V439z"/>
<linearGradient id="SVGID_2_" gradientUnits="userSpaceOnUse" x1="166.84" y1="323.9276" x2="166.84" y2="84.8275" gradientTransform="matrix(1 0 0 -1.27 -32.14 435.46)">
	<stop  offset="0" style="stop-color:#0277BD"/>
	<stop  offset="0.8" style="stop-color:#E81F64"/>
</linearGradient>
<path class="st1" d="M193.6,438l-117.8-0.5V67h117.8V438z"/>
<path class="st2" d="M462,157.5c22-62,48-89.5,48-89.5H392.4c-14.1,13.3-25.6,29.2-33.8,46.8c-17.2,36.7-41.6,119.4-55.4,147
	c-11.2,22.4-19,24.8-19,24.8s42.5,39.3,88.8,54.6C425.5,299.7,440.8,216.7,462,157.5L462,157.5z"/>
<path class="st2" d="M575.4,11.2v483.4H11.2V11.2H575.4 M586.6,0H0v505.7h586.6V0z"/>
<linearGradient id="SVGID_3_" gradientUnits="userSpaceOnUse" x1="320.1418" y1="176.6293" x2="339.6418" y2="206.5293" gradientTransform="matrix(1 0 0 -1 0 508)">
	<stop  offset="0" style="stop-color:#0277BD;stop-opacity:0.4"/>
	<stop  offset="1" style="stop-color:#000000;stop-opacity:0"/>
</linearGradient>
<path class="st3" d="M313.5,237.6c-3.8,10-7.3,18.7-10.3,24.7c-11.2,22.3-19,24.7-19,24.7s42.5,39,88.8,54.2
	c14.6-11.6,26.3-26,36-42.5L313.5,237.6z"/>
<path class="st4" d="M273,248.7C273,248.5,273,248.5,273,248.7c-17-33.4-31.4-102.4-46-134C218.8,97,207.5,80.8,193.7,67H75.8
	c0,0,31,33.8,53,89.8c30,76,41.6,210,163,210.5c33.8,0,61-10,81.2-26C326.7,325.9,292.8,290.9,273,248.7L273,248.7z"/>
</svg>
