<svg id="Layer_1" data-name="Layer 1" xmlns="http://www.w3.org/2000/svg" viewBox="0 0 3194.84 505.73"><defs><style>.cls-1 { fill: #38a4dd; } .cls-2 { fill: #e81f64; } .cls-3 { fill: url(#linear-gradient); } .cls-4 { fill: url(#linear-gradient-2); } .cls-5 { fill: url(#linear-gradient-3); }</style><linearGradient id="linear-gradient" x1="485" y1="189.6" x2="485" y2="428.7" gradientTransform="matrix(1 0 0 1.27 -32.14 -216.72)" gradientUnits="userSpaceOnUse"><stop offset="0" stop-color="#ba1950"/><stop offset=".8" stop-color="#38a4dd"/></linearGradient><linearGradient id="linear-gradient-2" x1="168.3" y1="189.6" x2="168.3" y2="428.7" gradientTransform="matrix(1 0 0 1.27 -32.14 -216.72)" gradientUnits="userSpaceOnUse"><stop offset="0" stop-color="#0277bd"/><stop offset=".8" stop-color="#e81f64"/></linearGradient><linearGradient id="linear-gradient-3" x1="359.9" y1="357.3" x2="379.4" y2="327.4" gradientUnits="userSpaceOnUse"><stop offset="0" stop-color="#0277bd" stop-opacity=".4"/><stop offset="1" stop-opacity="0"/></linearGradient></defs><title>MTE_logo</title><path class="cls-1" d="M687.8 208.2c0-20.7 0-42-.5-62.3h56.3c1 6 1.8 21.2 2.3 31.6 11.7-19.4 32-37.4 68.4-37.4 34.5 0 55.2 18 64.2 39.2 13.7-20.7 35.4-39.2 75.6-39.2 41.5 0 77 25 77 89.3v159h-57.6v-152c0-24-8.5-48.6-39.7-48.6-32.2 0-45.4 22.6-45.4 61.8v138.8H831v-150c0-27-7.2-50.2-38.8-50.2S746 210 746 253.6v135h-58.2zM1266.3 329c0 22.8 2 53.5 3.3 59.6h-56.2c-2-5.2-3.3-17.4-3.8-26.4-8.5 14.6-26 32-70.3 32-58 0-82.7-38.2-82.7-75.5 0-54.7 44-80.2 115.2-80.2h37V222c0-19-6.3-38.8-42.6-38.8-32 0-38.8 14.7-42 32.6H1068c3.3-39.7 28.3-76 100.5-75.6 63.3.5 97.8 25.5 97.8 82.2zm-57-53.7h-31.7c-43 0-62 12.8-62 40 0 20 13.3 36 39.3 36 48 0 54.2-33 54.2-69zM1300.8 211.6c0-27.4 0-47.7-.5-65.7h57.6c.8 5.6 1.3 28.2 1.3 44.8 11.3-29.3 38.3-50 79.3-50.6V197c-49-.6-79.3 17-79.3 81.6v110h-58.5zM1468.4 146h38.7V78.3h58.7V146h49.6v44.8h-49.6v127.5c0 20.3 5.6 28.8 26.4 28.8 4.8 0 12 0 17.6-1v41.2c-12.3 4.3-29.3 4.7-42.5 4.7-43.8 0-60-23.7-60-65.2v-136h-38.6zM1683.3 279.6c0 36.3 18.4 68 54.7 68 31.2 0 41-14.2 47.7-29.8h59c-9 30.2-35.4 76.5-108.6 76.5-78.3 0-111.8-60.5-111.8-123.7 0-75 38.3-130.3 114.8-130.3 81.7 0 109 61 109 118.5 0 8 0 13.7-1 20.8zm105.7-37.4c-.4-32.5-14.6-59-50.5-59s-50.5 24.6-53.8 59zM2084.2 311.7c-9 40.6-37.3 82.6-106.3 82.6-72.8 0-112.5-51-112.5-125.6 0-70.4 42-128.5 115.7-128.5 77.5 0 101 55.8 103 84.6h-57.6c-4.8-21.8-17.5-37.8-46.8-37.8-35 0-54.3 30.2-54.3 79.8 0 53 19.8 81.2 53.8 81.2 25.5 0 39.7-14.6 46.8-36.3zM2171 43.5V177c11.4-18 31.7-36.8 71.8-36.8 43 0 81.3 25 81.3 93v155.4h-58V242.2c0-35-13.2-53.8-44-53.8-39.6 0-51 28.3-51 70v130.2h-58.5V43.4z"/><path class="cls-2" d="M2383 274.8c0 55.3 28 91.6 71.4 91.6 41.6 0 55.3-22.6 63.3-41h32c-9.8 31-34.8 69-96.2 69-73.7 0-102.5-61.5-102.5-122.4 0-69 34.5-126.6 104.8-126.6 75 0 99.2 62.4 99.2 109.6 0 7 0 13.7-.5 19.8zm139.4-24.5c-.5-43.5-23-78-67-78-46 0-66.2 31.7-71 78zM2599.4 151c36.8 55.8 52.4 80.4 61.4 94h.4c11-15.5 33-48 64.2-94h36l-81.8 115 82.7 122.6h-36.8c-32-48.6-54.3-83-65.2-99h-.5c-8.5 13.5-28.8 45.7-64.2 99h-36l82.3-120-79-117.5zM2798.2 274.8c0 55.3 27.8 91.6 71.3 91.6 41.5 0 55.2-22.6 63.3-41h32c-9.8 31-35 69-96.3 69-73.6 0-102.4-61.5-102.4-122.4 0-69 34.6-126.6 105-126.6 75 0 99 62.4 99 109.6 0 7 0 13.7-.4 19.8zm139.3-24.5c-.5-43.5-23.2-78-67-78-46 0-66.2 31.7-71 78zM3194.8 317.3c-10.8 41.6-38.2 77-95 77-61.7 0-103.3-45.3-103.3-123.2 0-66 36.4-125.5 106.3-125.5 64.2 0 88.3 45.3 92 77.4h-31.6c-6.6-26-23-49.7-61-49.7-46.2 0-72.6 39.7-72.6 96.4 0 55.7 25 96.8 70.8 96.8 32.6 0 51.5-16.6 62.8-49z"/><g><path class="cls-3" d="M510.2 439l-117.8-.5V68h117.8v371z"/><path class="cls-4" d="M193.6 438l-117.8-.5V67h117.8v371z"/><path class="cls-2" d="M462 157.5C484 95.5 510 68 510 68H392.4a154.5 154.5 0 0 0-33.8 46.8c-17.2 36.7-41.6 119.4-55.4 147-11.2 22.4-19 24.8-19 24.8s42.5 39.3 88.8 54.6c52.5-41.5 67.8-124.5 89-183.7z"/><path class="cls-2" d="M575.4 11.2v483.4H11.2V11.2h564.2M586.6 0H0v505.7h586.6V0z"/><path class="cls-5" d="M313.5 237.6c-3.8 10-7.3 18.7-10.3 24.7-11.2 22.3-19 24.7-19 24.7s42.5 39 88.8 54.2c14.6-11.6 26.3-26 36-42.5z"/><path class="cls-1" d="M273 248.7c0-.2 0-.2 0 0-17-33.4-31.4-102.4-46-134A164.8 164.8 0 0 0 193.7 67H75.8s31 33.8 53 89.8c30 76 41.6 210 163 210.5 33.8 0 61-10 81.2-26-46.3-15.4-80.2-50.4-100-92.6z"/></g></svg>